<mxfile host="app.diagrams.net" agent="Mozilla/5.0 (Windows NT 10.0; Win64; x64) AppleWebKit/537.36 (KHTML, like Gecko) Chrome/138.0.0.0 Safari/537.36" version="28.0.5">
  <diagram name="Page-1" id="2p3W1TwI71qRCSyU0E8I">
    <mxGraphModel dx="1426" dy="749" grid="1" gridSize="10" guides="1" tooltips="1" connect="1" arrows="1" fold="1" page="1" pageScale="1" pageWidth="2500" pageHeight="1920" background="none" math="0" shadow="0">
      <root>
        <mxCell id="0" />
        <mxCell id="1" parent="0" />
        <mxCell id="SgpQ-Ep98uLSc8GFuPtw-4" value="" style="rounded=0;whiteSpace=wrap;html=1;dashed=1;fillColor=none;" vertex="1" parent="1">
          <mxGeometry x="290" y="200" width="840" height="450" as="geometry" />
        </mxCell>
        <mxCell id="SgpQ-Ep98uLSc8GFuPtw-1" value="" style="rounded=0;whiteSpace=wrap;html=1;dashed=1;fillColor=none;" vertex="1" parent="1">
          <mxGeometry x="10" y="200" width="140" height="450" as="geometry" />
        </mxCell>
        <mxCell id="SgpQ-Ep98uLSc8GFuPtw-3" value="&lt;font style=&quot;font-size: 18px;&quot;&gt;Sources&lt;/font&gt;" style="rounded=0;whiteSpace=wrap;html=1;fillColor=default;strokeColor=none;" vertex="1" parent="1">
          <mxGeometry x="30" y="185" width="100" height="30" as="geometry" />
        </mxCell>
        <mxCell id="SgpQ-Ep98uLSc8GFuPtw-5" value="&lt;font style=&quot;font-size: 24px;&quot;&gt;Cloud&lt;/font&gt;" style="rounded=0;whiteSpace=wrap;html=1;fillColor=default;strokeColor=none;" vertex="1" parent="1">
          <mxGeometry x="300" y="170" width="70" height="30" as="geometry" />
        </mxCell>
        <mxCell id="SgpQ-Ep98uLSc8GFuPtw-6" value="" style="rounded=0;whiteSpace=wrap;html=1;dashed=1;fillColor=none;" vertex="1" parent="1">
          <mxGeometry x="310" y="240" width="270" height="400" as="geometry" />
        </mxCell>
        <mxCell id="SgpQ-Ep98uLSc8GFuPtw-7" value="&lt;font style=&quot;font-size: 24px;&quot;&gt;Azure&amp;nbsp;&lt;/font&gt;" style="rounded=0;whiteSpace=wrap;html=1;fillColor=default;strokeColor=none;" vertex="1" parent="1">
          <mxGeometry x="390" y="220" width="70" height="40" as="geometry" />
        </mxCell>
        <mxCell id="SgpQ-Ep98uLSc8GFuPtw-8" value="" style="rounded=0;whiteSpace=wrap;html=1;dashed=1;fillColor=none;" vertex="1" parent="1">
          <mxGeometry x="600" y="240" width="520" height="400" as="geometry" />
        </mxCell>
        <mxCell id="SgpQ-Ep98uLSc8GFuPtw-10" value="&lt;font style=&quot;font-size: 24px;&quot;&gt;Snowflake&lt;/font&gt;" style="rounded=0;whiteSpace=wrap;html=1;fillColor=default;strokeColor=none;" vertex="1" parent="1">
          <mxGeometry x="787.5" y="220" width="125" height="40" as="geometry" />
        </mxCell>
        <mxCell id="SgpQ-Ep98uLSc8GFuPtw-11" value="Bronze layer" style="rounded=0;whiteSpace=wrap;html=1;" vertex="1" parent="1">
          <mxGeometry x="620" y="290" width="130" height="30" as="geometry" />
        </mxCell>
        <mxCell id="SgpQ-Ep98uLSc8GFuPtw-12" value="Silver layer" style="rounded=0;whiteSpace=wrap;html=1;" vertex="1" parent="1">
          <mxGeometry x="790" y="290" width="130" height="30" as="geometry" />
        </mxCell>
        <mxCell id="SgpQ-Ep98uLSc8GFuPtw-13" value="Gold layer" style="rounded=0;whiteSpace=wrap;html=1;" vertex="1" parent="1">
          <mxGeometry x="970" y="290" width="130" height="30" as="geometry" />
        </mxCell>
        <mxCell id="SgpQ-Ep98uLSc8GFuPtw-16" value="Bronze layer" style="rounded=0;whiteSpace=wrap;html=1;" vertex="1" parent="1">
          <mxGeometry x="620" y="330" width="130" height="300" as="geometry" />
        </mxCell>
        <mxCell id="SgpQ-Ep98uLSc8GFuPtw-17" value="Bronze layer" style="rounded=0;whiteSpace=wrap;html=1;" vertex="1" parent="1">
          <mxGeometry x="790" y="330" width="130" height="300" as="geometry" />
        </mxCell>
        <mxCell id="SgpQ-Ep98uLSc8GFuPtw-18" value="Bronze layer" style="rounded=0;whiteSpace=wrap;html=1;" vertex="1" parent="1">
          <mxGeometry x="970" y="330" width="130" height="300" as="geometry" />
        </mxCell>
        <mxCell id="SgpQ-Ep98uLSc8GFuPtw-19" value="" style="image;aspect=fixed;html=1;points=[];align=center;fontSize=12;image=img/lib/azure2/general/Folder_Blank.svg;" vertex="1" parent="1">
          <mxGeometry x="55.36" y="260" width="49.29" height="40" as="geometry" />
        </mxCell>
        <mxCell id="SgpQ-Ep98uLSc8GFuPtw-22" value="" style="image;aspect=fixed;html=1;points=[];align=center;fontSize=12;image=img/lib/azure2/general/File.svg;" vertex="1" parent="1">
          <mxGeometry x="90" y="280" width="24.35" height="30" as="geometry" />
        </mxCell>
        <mxCell id="SgpQ-Ep98uLSc8GFuPtw-23" value="" style="image;aspect=fixed;html=1;points=[];align=center;fontSize=12;image=img/lib/azure2/general/Folder_Blank.svg;" vertex="1" parent="1">
          <mxGeometry x="55.36" y="430" width="49.29" height="40" as="geometry" />
        </mxCell>
        <mxCell id="SgpQ-Ep98uLSc8GFuPtw-24" value="" style="image;aspect=fixed;html=1;points=[];align=center;fontSize=12;image=img/lib/azure2/general/File.svg;" vertex="1" parent="1">
          <mxGeometry x="90" y="450" width="24.35" height="30" as="geometry" />
        </mxCell>
        <mxCell id="SgpQ-Ep98uLSc8GFuPtw-25" value="" style="rounded=0;whiteSpace=wrap;html=1;dashed=1;fillColor=none;" vertex="1" parent="1">
          <mxGeometry x="1150" y="200" width="140" height="450" as="geometry" />
        </mxCell>
        <mxCell id="SgpQ-Ep98uLSc8GFuPtw-26" value="&lt;font style=&quot;font-size: 18px;&quot;&gt;Consume&lt;/font&gt;" style="rounded=0;whiteSpace=wrap;html=1;fillColor=default;strokeColor=none;" vertex="1" parent="1">
          <mxGeometry x="1170" y="185" width="100" height="30" as="geometry" />
        </mxCell>
        <mxCell id="SgpQ-Ep98uLSc8GFuPtw-27" value="" style="image;sketch=0;aspect=fixed;html=1;points=[];align=center;fontSize=12;image=img/lib/mscae/BlobBlock.svg;" vertex="1" parent="1">
          <mxGeometry x="340" y="345" width="50" height="42" as="geometry" />
        </mxCell>
        <mxCell id="SgpQ-Ep98uLSc8GFuPtw-28" value="" style="image;aspect=fixed;html=1;points=[];align=center;fontSize=12;image=img/lib/azure2/databases/Data_Factory.svg;" vertex="1" parent="1">
          <mxGeometry x="490" y="332" width="68" height="68" as="geometry" />
        </mxCell>
        <mxCell id="SgpQ-Ep98uLSc8GFuPtw-29" value="" style="image;aspect=fixed;html=1;points=[];align=center;fontSize=12;image=img/lib/azure2/general/Powershell.svg;" vertex="1" parent="1">
          <mxGeometry x="180.00000000000003" y="340" width="65" height="52" as="geometry" />
        </mxCell>
        <mxCell id="SgpQ-Ep98uLSc8GFuPtw-30" value="" style="image;aspect=fixed;html=1;points=[];align=center;fontSize=12;image=img/lib/azure2/power_platform/PowerBI.svg;" vertex="1" parent="1">
          <mxGeometry x="1199" y="362" width="51" height="68" as="geometry" />
        </mxCell>
        <mxCell id="SgpQ-Ep98uLSc8GFuPtw-31" value="Next steps: add description per item" style="text;html=1;align=center;verticalAlign=middle;whiteSpace=wrap;rounded=0;" vertex="1" parent="1">
          <mxGeometry x="250" y="670" width="210" height="30" as="geometry" />
        </mxCell>
        <mxCell id="SgpQ-Ep98uLSc8GFuPtw-41" value="" style="line;strokeWidth=1;rotatable=0;dashed=0;labelPosition=right;align=left;verticalAlign=middle;spacingTop=0;spacingLeft=6;points=[];portConstraint=eastwest;" vertex="1" parent="1">
          <mxGeometry x="50" y="500" width="70" height="10" as="geometry" />
        </mxCell>
        <mxCell id="SgpQ-Ep98uLSc8GFuPtw-42" value="" style="line;strokeWidth=1;rotatable=0;dashed=0;labelPosition=right;align=left;verticalAlign=middle;spacingTop=0;spacingLeft=6;points=[];portConstraint=eastwest;" vertex="1" parent="1">
          <mxGeometry x="175" y="450" width="70" height="10" as="geometry" />
        </mxCell>
        <mxCell id="SgpQ-Ep98uLSc8GFuPtw-43" value="" style="line;strokeWidth=1;rotatable=0;dashed=0;labelPosition=right;align=left;verticalAlign=middle;spacingTop=0;spacingLeft=6;points=[];portConstraint=eastwest;" vertex="1" parent="1">
          <mxGeometry x="340" y="445" width="70" height="10" as="geometry" />
        </mxCell>
        <mxCell id="SgpQ-Ep98uLSc8GFuPtw-44" value="" style="line;strokeWidth=1;rotatable=0;dashed=0;labelPosition=right;align=left;verticalAlign=middle;spacingTop=0;spacingLeft=6;points=[];portConstraint=eastwest;" vertex="1" parent="1">
          <mxGeometry x="480" y="445" width="70" height="10" as="geometry" />
        </mxCell>
      </root>
    </mxGraphModel>
  </diagram>
</mxfile>
